# xmcd
#
# Track frame offsets:
#	183
#	12378
#	27043
#	42478
#	55045
#	70725
#	83370
#	98933
#	111613
#	120738
#	133035
#	144840
#
# Disc length: 2159 seconds
#
# Revision: 10
# Processed by: cddbd v1.5.2PL0 Copyright (c) Steve Scherf et al.
# Submitted via: audiograbber 1.83.01
#
DISCID=9c086d0c
DTITLE=James Last - Instrumental Forever
DYEAR=1982
DGENRE=Easy Listening
TTITLE0=A String Of Pearls
TTITLE1=Tico Tico
TTITLE2=Granada
TTITLE3=Brazil
TTITLE4=St. Louis Blues March
TTITLE5=Havah Nagilah
TTITLE6=Petite Fleur
TTITLE7=Cherry Pink
TTITLE8=You Are My Sunshine
TTITLE9=La Bamba
TTITLE10=Amor, Amor, Amor
TTITLE11=Copacabana
EXTD=
EXTT0=
EXTT1=
EXTT2=
EXTT3=
EXTT4=
EXTT5=
EXTT6=
EXTT7=
EXTT8=
EXTT9=
EXTT10=
EXTT11=
PLAYORDER=
